<svg xmlns="http://www.w3.org/2000/svg" viewBox="0 0 64 64">
  <defs>
    <linearGradient id="heart" x1="0" y1="0" x2="1" y2="1">
      <stop offset="0" stop-color="#ee9b91"/>
      <stop offset="1" stop-color="#c65e70"/>
    </linearGradient>
  </defs>

  <!-- sparkle -->
  <path
    fill="#34283f"
    d="M17 4
       C18.2 11.8 21.2 14.8 29 16
       C21.2 17.2 18.2 20.2 17 28
       C15.8 20.2 12.8 17.2 5 16
       C12.8 14.8 15.8 11.8 17 4Z"
  />

  <!-- heart -->
  <path
    fill="url(#heart)"
    d="M35 57
       C31 52.5 17 42.5 17 30
       C17 22.5 22.2 18 28.2 18
       C31.8 18 34 20 35 22.4
       C36 20 38.2 18 41.8 18
       C47.8 18 53 22.5 53 30
       C53 42.5 39 52.5 35 57Z"
  />
</svg>
